<svg xmlns="http://www.w3.org/2000/svg" viewBox="0 24 427 72" role="img" aria-label="Mantua">
  <!-- Hero wordmark, light-theme stops. Outlined geometric caps with the
       leaf over the first M's stem (mask blanks the stem behind it). -->
  <defs>
    <linearGradient id="mantua-wm-light" x1="0" y1="0" x2="1" y2="1">
      <stop offset="0" stop-color="#8b5cf6" />
      <stop offset="0.5" stop-color="#2f9fe0" />
      <stop offset="1" stop-color="#14d69a" />
    </linearGradient>
    <mask id="mantua-wm-leaf-light">
      <rect x="-30" y="0" width="500" height="120" fill="white" />
      <path d="M14 42 C-2 37 -11 56 5 79 C17 71 19 53 14 42 Z" fill="black" />
    </mask>
  </defs>
  <g fill="none" stroke="url(#mantua-wm-light)" stroke-width="4">
    <g transform="translate(15 0)">
      <path d="M0 88 V32 H14 L32 64 L50 32 H64 V88 H53 V46 L32 82 L11 46 V88 Z" mask="url(#mantua-wm-leaf-light)" />
      <path d="M14 42 C-2 37 -11 56 5 79 C17 71 19 53 14 42 Z" stroke-linejoin="round" />
      <path d="M6 74 C5 63 6 52 11 45" stroke-linecap="round" />
    </g>
    <g transform="translate(92 0)">
      <path d="M0 88 L22 32 H34 L56 88 H44 L36 66 H20 L12 88 Z" />
      <path d="M28 44 L33 58 H23 Z" />
    </g>
    <g transform="translate(161 0)">
      <path d="M0 88 V32 H12 L40 68 V32 H52 V88 H40 L12 52 V88 Z" />
    </g>
    <g transform="translate(226 0)">
      <path d="M0 32 H52 V44 H32 V88 H20 V44 H0 Z" />
    </g>
    <g transform="translate(291 0)">
      <path d="M0 32 V64 C0 79 11 88 26 88 C41 88 52 79 52 64 V32 H40 V64 C40 72 35 76 26 76 C17 76 12 72 12 64 V32 Z" />
    </g>
    <g transform="translate(356 0)">
      <path d="M0 88 L22 32 H34 L56 88 H44 L36 66 H20 L12 88 Z" />
      <path d="M28 44 L33 58 H23 Z" />
    </g>
  </g>
</svg>
